<svg xmlns="http://www.w3.org/2000/svg" width="24" height="24" viewBox="0 0 24 24">
  <defs>
    <style>
      .cls-1 {
        fill: #009ea7;
        fill-rule: evenodd;
      }
    </style>
  </defs>
  <path class="cls-1" d="M1258.67,3340h-9.34a7.328,7.328,0,0,1-7.33-7.33v-9.34a7.328,7.328,0,0,1,7.33-7.33h9.34a7.328,7.328,0,0,1,7.33,7.33v9.34A7.328,7.328,0,0,1,1258.67,3340Zm5.33-16.67a5.335,5.335,0,0,0-5.33-5.33h-9.34a5.335,5.335,0,0,0-5.33,5.33v9.34a5.335,5.335,0,0,0,5.33,5.33h9.34a5.335,5.335,0,0,0,5.33-5.33v-9.34Zm-3.73-.26a1.335,1.335,0,1,1,1.33-1.34A1.34,1.34,0,0,1,1260.27,3323.07ZM1254,3334a6,6,0,1,1,6-6A6,6,0,0,1,1254,3334Zm0-10a4,4,0,1,0,4,4A4,4,0,0,0,1254,3324Z" transform="translate(-1242 -3316)"/>
</svg>
