<svg xmlns="http://www.w3.org/2000/svg" width="24" height="16" viewBox="0 0 24 16">
  <defs>
    <style>
      .cls-1 {
        fill: #009ea7;
        fill-rule: evenodd;
      }
    </style>
  </defs>
  <path class="cls-1" d="M1313.77,3323.21a3.3,3.3,0,0,0-3.06-2.91c-1.88-.14-4.67-0.3-8.11-0.3-4.14,0-7.27.16-9.29,0.31a3.3,3.3,0,0,0-3.08,2.91c-0.12,1.24-.23,2.88-0.23,4.83,0,1.9.11,3.51,0.23,4.74a3.3,3.3,0,0,0,3.08,2.9c2.02,0.15,5.15.31,9.29,0.31,3.44,0,6.23-.16,8.11-0.3a3.3,3.3,0,0,0,3.06-2.91c0.12-1.23.23-2.86,0.23-4.79S1313.89,3324.44,1313.77,3323.21Zm-14.44,8.15v-6.72l6.96,3.36Z" transform="translate(-1290 -3320)"/>
</svg>
