<?xml version="1.0" encoding="utf-8"?>
<!-- Generator: Adobe Illustrator 23.0.2, SVG Export Plug-In . SVG Version: 6.00 Build 0)  -->
<svg version="1.1" id="Layer_1" xmlns="http://www.w3.org/2000/svg" xmlns:xlink="http://www.w3.org/1999/xlink" x="0px" y="0px"
	 viewBox="0 0 100 12.5" style="enable-background:new 0 0 100 12.5;" xml:space="preserve">
<style type="text/css">
	.st0{fill:#222222;}
	.st1{fill:#F50357;}
</style>
<g>
	<g>
		<polygon class="st0" points="8.1,0.3 6.8,4 8.4,7.7 5.6,7.7 4.7,10.1 9.2,10.1 10,12.2 13.2,12.2 8.6,0.3 		"/>
	</g>
	<polygon class="st1" points="4.5,0.3 7.4,0.3 3.2,12.2 0,12.2 	"/>
	<polygon class="st0" points="92.8,0.3 92.8,12.2 100,12.2 100,9.6 95.9,9.6 95.9,0.3 	"/>
	<polygon class="st0" points="82.5,0.3 85.5,0.3 81.2,12.2 78,12.2 	"/>
	<polygon class="st0" points="88,12.2 87.2,10.1 82.7,10.1 83.6,7.7 86.4,7.7 84.8,4 86.1,0.3 86.7,0.3 91.2,12.2 88,12.2 	"/>
	<polygon class="st0" points="78.2,2.9 78.2,0.3 69.4,0.3 69.4,2.9 72.2,2.9 72.2,12.2 75.4,12.2 75.4,2.9 78.2,2.9 	"/>
	<polygon class="st0" points="64.3,0.9 64.3,12.2 67.5,12.2 67.5,0.3 	"/>
	<path class="st0" d="M56,7.9h2.5c0,0.3-0.1,0.6-0.3,0.9c-0.1,0.2-0.3,0.4-0.6,0.6c-0.2,0.1-0.5,0.3-0.8,0.3
		c-0.3,0.1-0.6,0.1-0.9,0.1c-0.5,0-0.9-0.1-1.4-0.3c-0.4-0.2-0.7-0.4-1-0.7c-0.3-0.3-0.5-0.7-0.6-1.1c-0.3-0.9-0.3-2,0-2.9
		c0.1-0.4,0.3-0.8,0.6-1.2c0.3-0.3,0.6-0.6,1-0.7c0.4-0.2,0.8-0.3,1.3-0.3c0.5,0,1,0.1,1.5,0.4c0.4,0.3,0.8,0.6,1,1.1l3.2-0.7
		c-0.7-1.5-1.5-2.3-2.4-2.7C58.3,0.3,57.2,0,56,0c-0.9,0-1.8,0.1-2.6,0.4c-0.7,0.3-1.4,0.7-2,1.3c-0.6,0.6-1,1.2-1.3,2
		c-0.6,1.6-0.6,3.4,0,5.1c0.3,0.7,0.7,1.4,1.3,2c0.6,0.6,1.2,1,2,1.3c0.8,0.3,1.7,0.5,2.5,0.4c0.6,0,1.3-0.1,1.9-0.2
		c0.6-0.2,1.2-0.4,1.7-0.7c0.5-0.3,1-0.7,1.3-1.2c0.4-0.5,0.7-1,0.9-1.6c0.2-0.5,0.3-0.9,0.3-1.4c0-0.6,0.1-1.1,0.1-1.7H56L56,7.9
		L56,7.9z"/>
	<polygon class="st0" points="44.6,0.9 44.6,12.2 47.8,12.2 47.8,0.3 	"/>
	<path class="st0" d="M42.2,4C42,3.3,41.5,2.6,41,2.1s-1.2-1-1.9-1.3c-0.7-0.3-1.5-0.5-2.3-0.5h-4.7v11.9h4.7c0.8,0,1.6-0.2,2.3-0.5
		c0.7-0.3,1.4-0.8,1.9-1.3c0.5-0.5,1-1.2,1.3-1.9C42.9,7.1,42.9,5.4,42.2,4z M39.2,7.6C39,8,38.8,8.3,38.5,8.6
		c-0.3,0.3-0.7,0.5-1.1,0.7c-0.5,0.2-1,0.3-1.5,0.2h-0.7V2.9H36c0.5,0,1,0.1,1.4,0.2c0.4,0.1,0.8,0.4,1.1,0.7
		c0.3,0.3,0.5,0.7,0.7,1.1c0.2,0.4,0.2,0.9,0.2,1.3C39.4,6.7,39.4,7.1,39.2,7.6z"/>
	<path class="st0" d="M24,7.8c-0.1-0.3-0.2-0.6-0.4-0.9c-0.2-0.3-0.5-0.5-0.8-0.6c-0.4-0.2-0.7-0.3-1.2-0.4c0.5-0.2,1.1-0.5,1.4-1
		c0.2-0.5,0.3-1,0.3-1.5c0-1-0.3-1.7-0.9-2.2S21,0.3,19.9,0.3h-5l0,11.9h5.1c0.6,0,1.2-0.1,1.8-0.2c0.5-0.1,0.9-0.3,1.3-0.7
		c0.4-0.3,0.6-0.7,0.8-1.1c0.2-0.5,0.3-1,0.3-1.5C24.1,8.4,24.1,8.1,24,7.8z M18,2.7h0.6c1,0,1.8,0,1.8,1.2S19.5,5,18.5,5H18V2.7z
		 M20.7,9.2c-0.1,0.1-0.2,0.2-0.3,0.3c-0.3,0.2-0.9,0.3-1.7,0.3H18V7.3h0.7c0.8,0,1.4,0.1,1.7,0.3C20.9,7.9,21,8.6,20.7,9.2z"/>
	<rect x="25.9" y="9.1" class="st0" width="3.1" height="3.1"/>
</g>
</svg>
